<?xml version="1.0" encoding="UTF-8" standalone="no"?>
<svg
   xmlns:dc="http://purl.org/dc/elements/1.1/"
   xmlns:cc="http://creativecommons.org/ns#"
   xmlns:rdf="http://www.w3.org/1999/02/22-rdf-syntax-ns#"
   xmlns:svg="http://www.w3.org/2000/svg"
   xmlns="http://www.w3.org/2000/svg"
   height="306.90201"
   width="577.13934"
   id="svg4"
   version="1.1"
   viewBox="0 0 577.13934 306.90201"
   role="img"
   class="svg-inline--fa fa-volume-up fa-w-18"
   data-icon="volume-up"
   data-prefix="fas"
   focusable="false"
   aria-hidden="true">
  <metadata
     id="metadata10">
    <rdf:RDF>
      <cc:Work
         rdf:about="">
        <dc:format>image/svg+xml</dc:format>
        <dc:type
           rdf:resource="http://purl.org/dc/dcmitype/StillImage" />
        <dc:title></dc:title>
      </cc:Work>
    </rdf:RDF>
  </metadata>
  <defs
     id="defs8" />
  <path
     style="fill:currentColor;stroke-width:0.61958569"
     id="path2"
     d="M 133.22951,43.59795 78.104972,98.710101 H 14.870057 C 6.6543503,98.710101 0,105.36445 0,113.58015 v 89.22034 c 0,8.20951 6.6543503,14.87006 14.870057,14.87006 h 63.234915 l 55.124538,55.11215 c 9.31237,9.31237 25.38443,2.76954 25.38443,-10.51438 V 54.112319 c 0,-13.296309 -16.08445,-19.81435 -25.38443,-10.514369 z M 277.79124,11.949513 c -6.92077,-4.5415632 -16.22075,-2.6270432 -20.76232,4.306121 -4.54775,6.920772 -2.61465,16.220754 4.30612,20.762316 41.05995,26.945782 65.56457,72.24369 65.56457,121.17857 0,48.93488 -24.50462,94.23278 -65.56457,121.17857 -6.92077,4.53536 -8.85387,13.84154 -4.30612,20.75612 4.36189,6.63576 13.58752,9.02117 20.76232,4.30612 49.51729,-32.50347 79.09012,-87.18191 79.09012,-146.24701 0,-59.065099 -29.57283,-113.737342 -79.09012,-146.240807 z m 19.60989,146.240807 c 0,-39.36227 -19.86392,-75.552275 -53.14186,-96.804065 -6.93316,-4.423841 -16.12782,-2.366817 -20.52068,4.622109 -4.39286,6.988927 -2.34203,16.239341 4.59113,20.669379 24.62853,15.731277 39.3313,42.460207 39.3313,71.512577 0,29.05238 -14.70277,55.7813 -39.3313,71.51258 -6.93316,4.42385 -8.98399,13.67426 -4.59113,20.66938 4.0335,6.41891 13.08565,9.38053 20.52068,4.62211 33.27794,-21.25179 53.14186,-57.4356 53.14186,-96.80407 z m -87.83867,-47.62755 c -7.17479,-3.92198 -16.22694,-1.33831 -20.20468,5.85509 -3.95915,7.19338 -1.33831,16.23314 5.85508,20.20469 7.99886,4.39286 12.96793,12.66433 12.96793,21.56777 0,8.90965 -4.96907,17.17491 -12.96174,21.56778 -7.19338,3.97155 -9.81423,13.0113 -5.85507,20.20469 3.98393,7.22437 13.04227,9.78945 20.20468,5.85508 17.4909,-9.63455 28.35844,-27.88135 28.35844,-47.63374 0,-19.7524 -10.86754,-37.99299 -28.36464,-47.62136 z" />
  <path
     style="fill:currentColor;stroke-width:0.59927642"
     d="m 471.9771,0 c -47.83364,0 -78.81563,19.598136 -103.13966,54.549734 -4.41247,6.340343 -3.05212,15.033448 3.10305,19.700613 l 25.85158,19.601734 c 6.2163,4.7133 15.06102,3.61124 19.92774,-2.485801 15.01128,-18.805892 26.14644,-29.633619 49.59432,-29.633619 18.43614,0 41.2398,11.865074 41.2398,29.742687 0,13.514882 -11.15672,20.455702 -29.36034,30.661372 -21.22817,11.90163 -49.31985,26.71335 -49.31985,63.76601 v 5.86571 c 0,7.94341 6.43922,14.38263 14.38263,14.38263 h 43.43016 c 7.94341,0 14.38263,-6.43922 14.38263,-14.38263 v -3.45962 c 0,-25.68498 75.07016,-26.75469 75.07016,-96.259964 C 577.13992,39.705657 522.84428,0 471.9771,0 Z m -6.00535,223.80515 c -22.88996,0 -41.51248,18.62253 -41.51248,41.51248 0,22.88936 18.62252,41.51189 41.51248,41.51189 22.88996,0 41.51247,-18.62253 41.51247,-41.51248 0,-22.88997 -18.62251,-41.51189 -41.51247,-41.51189 z"
     id="path885" />
</svg>
